<?xml version="1.0"?><svg width="640" height="480" xmlns="http://www.w3.org/2000/svg">
 <title>green house</title>

 <metadata id="metadata7">image/svg+xml</metadata>
 <g>
  <title>Layer 1</title>
  <g id="layer1" display="inline"/>
  <g id="layer2" display="inline" opacity="0.9">
   <g id="g8429">
    <path id="path4555" d="m460.016785,235.922638l-151.545959,-151.657684l-151.545914,151.657684l0,179.821075c0,1.744873 0.365723,3.404846 1.005829,4.917419c0.640121,1.512573 1.537918,2.879028 2.68222,4.023376c1.144333,1.144287 2.510803,2.042053 4.023361,2.68219c1.512558,0.640137 3.172501,1.005859 4.917419,1.005859l138.917084,0l138.917114,0c1.744873,0 3.404846,-0.365723 4.917419,-1.005859c1.512573,-0.640137 2.879028,-1.537903 4.023315,-2.68219c1.144348,-1.144348 2.042114,-2.510803 2.682251,-4.023376c0.640137,-1.512573 1.005859,-3.172546 1.005859,-4.917419l0,-179.821075z" stroke-dashoffset="0" stroke-miterlimit="4" marker-end="none" marker-mid="none" marker-start="none" stroke-linejoin="round" stroke-linecap="round" stroke-width="51" fill-rule="nonzero" fill="#000042"/>
    <path id="path4498" d="m467.169373,190.101227l-145.39917,-145.622677c-1.790649,-1.789768 -3.958313,-3.203621 -6.258514,-4.135101c-2.300201,-0.931488 -4.732941,-1.380619 -7.264374,-1.341129c-2.434662,0.034641 -4.83902,0.5228 -7.040833,1.452881c-2.201843,0.930119 -4.20108,2.302132 -5.923279,4.02335l-145.51091,145.622677l0,52.97403l158.698532,-158.810303l158.698547,158.810303l0,-52.97403z" stroke-dashoffset="0" stroke-miterlimit="4" marker-end="none" marker-mid="none" marker-start="none" stroke-linejoin="round" stroke-linecap="round" stroke-width="51" fill-rule="nonzero" fill="#000042"/>
    <path id="path4553" d="m460.016785,182.948608l-138.246582,-138.470058c-1.790649,-1.789768 -3.958313,-3.203621 -6.258514,-4.135101c-2.300201,-0.931488 -4.732941,-1.380619 -7.264374,-1.341129c-2.434662,0.034641 -4.83902,0.5228 -7.040833,1.452881c-2.201843,0.930119 -4.20108,2.302132 -5.923279,4.02335l-138.358292,138.470058l0,52.97403l151.545914,-151.657684l151.545959,151.657684l0,-52.97403z" stroke-dashoffset="0" stroke-miterlimit="4" marker-end="none" marker-mid="none" marker-start="none" stroke-linejoin="round" stroke-linecap="round" stroke-width="51" fill-rule="nonzero" fill="#000042"/>
    <path id="path4559" d="m169.541672,64.247383c-1.744919,0 -3.377563,0.392998 -4.890121,1.033104c-1.512558,0.640137 -2.884888,1.507385 -4.02919,2.651703c-1.144318,1.144287 -2.046021,2.516632 -2.686127,4.029182c-0.640121,1.512566 -0.998688,3.17968 -0.998688,4.924561l0,159.032433l67.04982,-67.118713l0,-91.913719c0,-1.744881 -0.358582,-3.411995 -0.998688,-4.924561c-0.640106,-1.512581 -1.541809,-2.884895 -2.686127,-4.029182c-1.144318,-1.144318 -2.516602,-2.011566 -4.029175,-2.651703c-1.512573,-0.640106 -3.179688,-1.033104 -4.924561,-1.033104l-41.807144,0z" stroke-dashoffset="0" stroke-miterlimit="4" marker-end="none" marker-mid="none" marker-start="none" stroke-linejoin="round" stroke-linecap="round" stroke-width="51" fill-rule="nonzero" fill="#000042"/>
    <path id="rect3345" d="m308.247314,39.002319c-4.869263,0.069302 -9.519745,2.033752 -12.964111,5.476231l-175.797745,175.909512c-7.314201,7.314178 -7.314201,19.172821 0,26.487c7.314194,7.314178 19.172821,7.314178 26.487015,0l162.498352,-162.610107l162.498352,162.610107c7.314209,7.314178 19.172852,7.314178 26.487,0c7.314209,-7.314178 7.314209,-19.172821 0,-26.487l-175.685974,-175.909512c-3.581268,-3.579529 -8.460052,-5.555241 -13.522888,-5.476231l0,0z" stroke-dashoffset="0" stroke-miterlimit="4" stroke-linejoin="round" stroke-linecap="round" stroke-width="51" fill-rule="nonzero" fill="#000042"/>
    <path id="path4557" d="m381.338043,428.372559l-145.734436,0l0,-179.821106c0,-1.744873 0.365723,-3.404846 1.005859,-4.917419c0.640106,-1.512573 1.537903,-2.879028 2.68222,-4.023346c1.144318,-1.144318 2.510773,-2.042084 4.023346,-2.68222c1.512543,-0.640137 3.172485,-1.005829 4.917419,-1.005829l120.476776,0c1.744873,0 3.404846,0.365692 4.917419,1.005829c1.512573,0.640137 2.879028,1.537903 4.023346,2.68222c1.144318,1.144318 2.042114,2.510773 2.68222,4.023346c0.640137,1.512573 1.005829,3.172546 1.005829,4.917419l0,179.821106z" stroke-opacity="0" stroke-dashoffset="0" stroke-miterlimit="4" marker-end="none" marker-mid="none" marker-start="none" stroke-linejoin="round" stroke-linecap="round" stroke-width="51" stroke="#000000" fill-rule="nonzero" fill="#000042"/>
    <path id="path3377" d="m259.251373,246.938354c-1.744904,0 -3.411987,0.358551 -4.924561,0.998688c-1.512543,0.640137 -2.884888,1.541809 -4.029175,2.686127c-1.144318,1.144287 -2.011597,2.516632 -2.651703,4.029175c-0.640106,1.512573 -1.033112,3.179688 -1.033112,4.924591l0,67.6008l0,2.031799l0.309937,0c2.899414,11.007874 29.337585,-24.450623 61.539825,-24.450623c32.20224,0 58.674835,35.458496 61.574249,24.450623l0.275513,0l0,-2.031799l0,-67.6008c0,-1.744904 -0.358551,-3.412018 -0.998688,-4.924591c-0.640106,-1.512543 -1.541809,-2.884888 -2.686127,-4.029175c-1.144287,-1.144318 -2.516602,-2.046021 -4.029175,-2.686127c-1.512573,-0.640137 -3.179688,-0.998688 -4.924561,-0.998688l-98.422424,0z" stroke-dashoffset="0" stroke-miterlimit="4" marker-end="none" marker-mid="none" marker-start="none" stroke-linejoin="round" stroke-linecap="round" stroke-width="51" fill-rule="nonzero" fill="#000042"/>
    <path d="m370.312256,332.1474a15.74285,15.74285 0 1 1 -31.485718,0a15.74285,15.74285 0 1 1 31.485718,0z" id="path3431" stroke-opacity="0" stroke-dashoffset="50" stroke-miterlimit="4" marker-end="none" marker-mid="none" marker-start="none" stroke-linecap="round" stroke-width="51" fill-rule="nonzero" fill="#000042"/>
    <path id="path3434" d="m354.574402,320.737915c-6.300293,0 -11.433258,5.098572 -11.433258,11.398865c0,4.287476 2.4935,7.898438 5.992157,9.849121c-0.196625,-0.353638 -0.529938,-0.623352 -0.688751,-0.998718c-0.57782,-1.365356 -0.895386,-2.867371 -0.895386,-4.442444c0,-1.575073 0.317566,-3.077087 0.895386,-4.442444c0.577789,-1.365295 1.446564,-2.583008 2.479492,-3.615906c1.032928,-1.032959 2.25058,-1.867249 3.615936,-2.445068c1.365326,-0.57782 2.867371,-0.895386 4.442444,-0.895386c1.575043,0 3.077087,0.317566 4.442413,0.895386c0.373444,0.15802 0.64682,0.458923 0.998688,0.654297c-1.947998,-3.507996 -5.554688,-5.957703 -9.849121,-5.957703z" stroke-opacity="0" stroke-dashoffset="50" stroke-miterlimit="4" marker-end="none" marker-mid="none" marker-start="none" stroke-linecap="round" stroke-width="51" fill-rule="nonzero" fill="#000042" opacity="0.5"/>
   </g>
  </g>
 </g>
</svg>